<?xml version="1.0" encoding="UTF-8" standalone="no"?>
<svg xmlns:dc="http://purl.org/dc/elements/1.1/" xmlns:cc="http://creativecommons.org/ns#" xmlns:rdf="http://www.w3.org/1999/02/22-rdf-syntax-ns#" xmlns:svg="http://www.w3.org/2000/svg" xmlns="http://www.w3.org/2000/svg" viewBox="0 0 4000 3333.3333" height="3333.3333" width="4000" xml:space="preserve" id="svg2" version="1.1">
		<metadata id="metadata8">
			<rdf:RDF>
				<cc:Work rdf:about="">
					<dc:format>image/svg+xml</dc:format>
                    <dc:type rdf:resource="http://purl.org/dc/dcmitype/StillImage" />
				</cc:Work>
			</rdf:RDF>
		</metadata>
    <defs id="defs6">
			<clipPath id="clipPath18" clipPathUnits="userSpaceOnUse">
				<path id="path16" d="M 0,2500 H 3000 V 0 H 0 Z" />
			</clipPath>
		</defs>
    <g transform="matrix(1.3333333,0,0,-1.3333333,0,3333.3333)" id="g10">
			<g id="g12">
				<g clip-path="url(#clipPath18)" id="g14">
					<g transform="translate(1643.0798,2025.9724)" id="g20">
						<path id="path22" style="fill:#5693ce;fill-opacity:1;fill-rule:nonzero;stroke:none" d="m 0,0 c 34.839,11.026 70.869,18.313 107.28,21.408 18.861,-48.96 46.604,-93.992 77.514,-136.19 49.794,-66.487 110.495,-124.616 178.34,-172.506 78.156,-55.366 165.481,-97.254 256.496,-126.783 83.229,-27.124 169.601,-44.008 256.592,-53.295 -1.047,-153.146 -64.344,-303.076 -167.124,-415.762 -47.77,-52.914 -103.208,-99.136 -164.838,-135.047 -91.873,-53.843 -197.557,-83.896 -304.076,-85.705 -10.764,101.16 -31.91,201.534 -67.273,297.051 -28.243,76.537 -65.678,149.835 -112.853,216.465 -47.865,67.583 -105.685,128.332 -172.125,177.888 -42.102,31.22 -87.348,58.939 -136.404,77.823 3.834,48.628 15.479,96.636 33.625,141.906 19.169,46.769 46.96,90.968 85.752,123.926 C -91.706,-36.816 -46.722,-14.717 0,0" />
					</g>
                    <g transform="translate(1887.3362,1969.7008)" id="g24">
						<path id="path26" style="fill:#2b3f56;fill-opacity:1;fill-rule:nonzero;stroke:none" d="m 0,0 c 20.837,19.313 56.319,19.718 77.228,0.333 32.243,-32.053 64.272,-64.296 96.492,-96.373 17.313,-17.384 20.766,-46.27 8.93,-67.631 -9.073,-15.431 -23.813,-26.314 -35.744,-39.388 -37.339,25.29 -72.917,53.105 -106.637,83.015 -17.122,17.074 -36.316,32.076 -51.771,50.794 -8.525,10.74 -20.432,18.813 -26.457,31.458 C -25.242,-25.242 -12.788,-12.431 0,0" />
					</g>
                    <g transform="translate(1463.3822,1497.8577)" id="g28">
						<path id="path30" style="fill:#2b3f56;fill-opacity:1;fill-rule:nonzero;stroke:none" d="m 0,0 c -4.644,-0.786 -9.097,-2.786 -12.383,-6.168 -292.384,-292.645 -585.053,-585.029 -877.484,-877.627 -6.74,-6.382 -14.741,-13.145 -14.717,-23.337 -1.262,-12.383 8.668,-21.242 17.384,-28.291 9.882,-6.882 24.552,-4.215 32.481,4.525 293.718,293.693 587.411,587.387 881.104,881.104 10.74,9.049 12.241,27.219 1.929,37.101 C 21.48,-4.406 11.264,2.715 0,0 M -994.266,-946.234 C -647.088,-599.055 -299.885,-251.901 47.27,95.326 84.134,65.44 116.592,30.505 147.502,-5.382 c 23.266,-26.814 43.579,-55.986 64.749,-84.419 -346.679,-346.584 -693.215,-693.286 -1039.941,-1039.822 -20.623,-21.98 -58.439,-23.599 -80.514,-2.953 -32.172,32.149 -64.321,64.345 -96.493,96.493 -16.503,16.741 -19.932,44.007 -9.882,64.963 4.572,9.907 12.692,17.384 20.313,24.886" />
					</g>
                    <g transform="translate(1827.8735,1911.1907)" id="g32">
						<path id="path34" style="fill:#2b343e;fill-opacity:1;fill-rule:nonzero;stroke:none" d="M 0,0 C 7.859,6.168 14.288,13.883 21.504,20.718 27.529,8.073 39.435,0 47.961,-10.74 c 15.455,-18.717 34.648,-33.72 51.77,-50.794 33.721,-29.91 69.298,-57.725 106.638,-83.015 -9.383,-9.263 -18.67,-18.67 -28.029,-27.957 C 110.495,-124.617 49.794,-66.488 0,0" />
					</g>
                    <g transform="translate(1531.0129,1613.4966)" id="g36">
						<path id="path38" style="fill:#2b343e;fill-opacity:1;fill-rule:nonzero;stroke:none" d="m 0,0 c 66.44,-49.556 124.26,-110.305 172.125,-177.888 -9.145,-9.192 -18.36,-18.336 -27.505,-27.552 -21.17,28.433 -41.483,57.605 -64.749,84.419 C 48.961,-85.134 16.503,-50.199 -20.361,-20.313 -13.574,-13.55 -6.811,-6.763 0,0" />
					</g>
                    <g transform="translate(2519.302,1558.6062)" id="g40">
						<path id="path42" style="fill:#75c5ee;fill-opacity:1;fill-rule:nonzero;stroke:none" d="M 0,0 C 21.408,-2.334 42.865,-3.763 64.321,-5.596 73.179,-84.086 63.178,-164.123 40.126,-239.47 3.072,-360.657 -72.393,-468.319 -168.696,-549.976 c -101.446,-87.038 -230.349,-142.429 -363.943,-152.121 -32.72,-2.548 -65.726,-2.453 -98.279,1.786 -0.857,21.313 -3.072,42.555 -5.12,63.797 106.518,1.81 212.203,31.862 304.076,85.705 61.63,35.911 117.068,82.133 164.838,135.047 C -64.344,-303.076 -1.048,-153.145 0,0" />
					</g>
                    <g transform="translate(1463.3822,1497.8577)" id="g44">
						<path id="path46" style="fill:#2e5f7c;fill-opacity:1;fill-rule:nonzero;stroke:none" d="m 0,0 c 11.264,2.715 21.48,-4.406 28.314,-12.693 10.312,-9.882 8.811,-28.052 -1.929,-37.101 -293.693,-293.717 -587.386,-587.411 -881.104,-881.104 -7.929,-8.74 -22.599,-11.407 -32.481,-4.525 -8.716,7.049 -18.646,15.908 -17.384,28.291 -0.024,10.192 7.977,16.955 14.717,23.337 292.431,292.598 585.1,584.982 877.484,877.627 C -9.097,-2.786 -4.644,-0.786 0,0" />
					</g>
				</g>
			</g>
		</g>
	</svg>
